<mxfile host="65bd71144e">
    <diagram id="3YcLcnav1BOcSG4xQ_2O" name="Page-1">
        <mxGraphModel dx="772" dy="389" grid="1" gridSize="10" guides="1" tooltips="1" connect="1" arrows="1" fold="1" page="1" pageScale="1" pageWidth="827" pageHeight="1169" math="0" shadow="0">
            <root>
                <mxCell id="0"/>
                <mxCell id="1" parent="0"/>
                <mxCell id="11" value="" style="rounded=0;whiteSpace=wrap;html=1;strokeColor=#666666;fontColor=#333333;gradientColor=#ffffff;gradientDirection=east;fillColor=#B3B3B3;" vertex="1" parent="1">
                    <mxGeometry x="50" y="170" width="420" height="320" as="geometry"/>
                </mxCell>
                <mxCell id="ibESbj7DcfNNEL0wnVqV-1" value="Sure Petcare" style="ellipse;shape=cloud;whiteSpace=wrap;html=1;strokeColor=#666666;fontColor=#333333;shadow=0;sketch=1;fillColor=#9999FF;" parent="1" vertex="1">
                    <mxGeometry x="60" y="190" width="120" height="80" as="geometry"/>
                </mxCell>
                <mxCell id="ibESbj7DcfNNEL0wnVqV-2" value="" style="endArrow=classic;html=1;sketch=1;fillColor=#f5f5f5;strokeColor=#666666;startArrow=classic;startFill=1;exitX=0.5;exitY=0;exitDx=0;exitDy=0;entryX=0.55;entryY=0.95;entryDx=0;entryDy=0;entryPerimeter=0;" parent="1" source="4" target="ibESbj7DcfNNEL0wnVqV-1" edge="1">
                    <mxGeometry width="50" height="50" relative="1" as="geometry">
                        <mxPoint x="114" y="360" as="sourcePoint"/>
                        <mxPoint x="138" y="276" as="targetPoint"/>
                        <Array as="points">
                            <mxPoint x="200" y="276"/>
                            <mxPoint x="126" y="276"/>
                        </Array>
                    </mxGeometry>
                </mxCell>
                <mxCell id="ibESbj7DcfNNEL0wnVqV-3" value="&lt;span&gt;Mauzis&lt;br&gt;&lt;/span&gt;" style="rounded=1;whiteSpace=wrap;html=1;shadow=0;sketch=1;strokeColor=#666666;fontColor=#333333;fillColor=#9999FF;" parent="1" vertex="1">
                    <mxGeometry x="153.41" y="380" width="70" height="63" as="geometry"/>
                </mxCell>
                <mxCell id="ibESbj7DcfNNEL0wnVqV-6" value="Telegram&lt;br&gt;chat" style="rounded=1;whiteSpace=wrap;html=1;shadow=0;sketch=1;strokeColor=#666666;fontColor=#333333;fillColor=#9999FF;" parent="1" vertex="1">
                    <mxGeometry x="360" y="327" width="60" height="120" as="geometry"/>
                </mxCell>
                <mxCell id="ibESbj7DcfNNEL0wnVqV-8" value="" style="endArrow=none;html=1;strokeColor=#666666;fillColor=#f5f5f5;sketch=1;entryX=1.024;entryY=0.076;entryDx=0;entryDy=0;entryPerimeter=0;exitX=-0.008;exitY=0.064;exitDx=0;exitDy=0;exitPerimeter=0;" parent="1" source="ibESbj7DcfNNEL0wnVqV-6" target="ibESbj7DcfNNEL0wnVqV-6" edge="1">
                    <mxGeometry width="50" height="50" relative="1" as="geometry">
                        <mxPoint x="270" y="330" as="sourcePoint"/>
                        <mxPoint x="315" y="330" as="targetPoint"/>
                    </mxGeometry>
                </mxCell>
                <mxCell id="ibESbj7DcfNNEL0wnVqV-17" value="" style="endArrow=classic;html=1;entryX=0.25;entryY=0;entryDx=0;entryDy=0;sketch=1;fillColor=#f5f5f5;strokeColor=#666666;startArrow=classic;startFill=1;exitX=0.5;exitY=0;exitDx=0;exitDy=0;" parent="1" source="4" target="ibESbj7DcfNNEL0wnVqV-6" edge="1">
                    <mxGeometry width="50" height="50" relative="1" as="geometry">
                        <mxPoint x="212.5" y="337" as="sourcePoint"/>
                        <mxPoint x="286" y="286" as="targetPoint"/>
                        <Array as="points">
                            <mxPoint x="200" y="230"/>
                            <mxPoint x="375" y="230"/>
                        </Array>
                    </mxGeometry>
                </mxCell>
                <mxCell id="ibESbj7DcfNNEL0wnVqV-4" value="Telegram API" style="ellipse;shape=cloud;whiteSpace=wrap;html=1;strokeColor=#666666;fontColor=#333333;shadow=0;sketch=1;fillColor=#9999FF;" parent="1" vertex="1">
                    <mxGeometry x="240" y="180" width="120" height="80" as="geometry"/>
                </mxCell>
                <mxCell id="3" value="" style="aspect=fixed;html=1;points=[];align=center;image;fontSize=12;image=img/lib/mscae/Docker.svg;" parent="1" vertex="1">
                    <mxGeometry x="203.41" y="427" width="36.59" height="30" as="geometry"/>
                </mxCell>
                <mxCell id="4" value="" style="shape=image;html=1;verticalAlign=top;verticalLabelPosition=bottom;labelBackgroundColor=#ffffff;imageAspect=0;aspect=fixed;image=https://cdn4.iconfinder.com/data/icons/logos-brands-5/24/nginx-128.png;sketch=1;" parent="1" vertex="1">
                    <mxGeometry x="180" y="300" width="40" height="40" as="geometry"/>
                </mxCell>
                <mxCell id="9" value="" style="endArrow=classic;startArrow=classic;html=1;strokeColor=#666666;fillColor=#f5f5f5;startFill=1;sketch=1;entryX=0.5;entryY=1;entryDx=0;entryDy=0;exitX=0.5;exitY=0;exitDx=0;exitDy=0;" parent="1" source="ibESbj7DcfNNEL0wnVqV-3" target="4" edge="1">
                    <mxGeometry width="50" height="50" relative="1" as="geometry">
                        <mxPoint x="260" y="390" as="sourcePoint"/>
                        <mxPoint x="310" y="340" as="targetPoint"/>
                    </mxGeometry>
                </mxCell>
                <mxCell id="10" value="&lt;span&gt;reverse proxy&lt;br&gt;&lt;/span&gt;" style="rounded=1;whiteSpace=wrap;html=1;shadow=0;sketch=1;strokeColor=#666666;fontColor=#333333;fillColor=#9999FF;" parent="1" vertex="1">
                    <mxGeometry x="220" y="304.25" width="60" height="31.5" as="geometry"/>
                </mxCell>
            </root>
        </mxGraphModel>
    </diagram>
</mxfile>